<svg width="81" height="81" viewBox="0 0 81 81" fill="none" xmlns="http://www.w3.org/2000/svg">
<path d="M40.9609 80.0283C63.0523 80.0283 80.9609 62.1197 80.9609 40.0283C80.9609 17.9369 63.0523 0.0282593 40.9609 0.0282593C18.8695 0.0282593 0.960938 17.9369 0.960938 40.0283C0.960938 62.1197 18.8695 80.0283 40.9609 80.0283Z" fill="#0C0C0C"/>
<path d="M35.3333 39.0521L31.5556 34.0347L33.2994 32.0184C34.1875 30.9916 34.6315 30.4782 35.2012 30.156C35.3894 30.0496 35.5863 29.9596 35.7899 29.8868C36.4062 29.6667 37.085 29.6667 38.4426 29.6667H41M31.4308 26.1395L27.9708 29.8158C26.2937 31.5977 25.4551 32.4887 25.2476 33.5644C25.1801 33.914 25.1624 34.2714 25.195 34.6259C25.2954 35.7169 26.0418 36.6863 27.5348 38.6251L35.6123 49.1146C37.7973 51.952 38.8898 53.3708 40.3128 53.634C40.7671 53.718 41.2329 53.718 41.6872 53.634C43.1102 53.3708 44.2027 51.952 46.3877 49.1146L54.4652 38.6251C55.9582 36.6863 56.7046 35.7169 56.805 34.6259C56.8375 34.2714 56.8199 33.914 56.7524 33.5644C56.5449 32.4887 55.7063 31.5977 54.0292 29.8158L50.5692 26.1395C49.6885 25.2037 49.2481 24.7358 48.6993 24.4435C48.5178 24.3469 48.3288 24.2652 48.1341 24.1993C47.5451 24 46.9026 24 45.6175 24H36.3825C35.0974 24 34.4549 24 33.8659 24.1993C33.6712 24.2652 33.4822 24.3469 33.3007 24.4435C32.7519 24.7358 32.3115 25.2037 31.4308 26.1395Z" stroke="#FBFBFB" stroke-width="1.5" stroke-linecap="round" stroke-linejoin="round"/>
</svg>
