<svg width="81" height="81" viewBox="0 0 81 81" fill="none" xmlns="http://www.w3.org/2000/svg">
<path d="M40.0141 80.0282C62.1133 80.0282 80.0282 62.1133 80.0282 40.0141C80.0282 17.9149 62.1133 0 40.0141 0C17.9149 0 0 17.9149 0 40.0141C0 62.1133 17.9149 80.0282 40.0141 80.0282Z" fill="#FBFBFB"/>
<path d="M33.4151 51.6413L25 55L28.3587 46.5849M33.4151 51.6413L50.9018 34.1545M33.4151 51.6413L32.7423 47.2566L28.3587 46.5849M28.3587 46.5849L45.8455 29.0982M50.9018 34.1545L45.8455 29.0982M50.9018 34.1545L52.4718 32.5845C53.8681 31.1882 53.8681 28.9244 52.4718 27.5282V27.5282C51.0756 26.1319 48.8118 26.1319 47.4155 27.5282L45.8455 29.0982" stroke="#292556" stroke-width="2.36842" stroke-linecap="round" stroke-linejoin="round"/>
</svg>
