<svg width="81" height="80" viewBox="0 0 81 80" fill="none" xmlns="http://www.w3.org/2000/svg">
<path d="M40.9609 80C63.0523 80 80.9609 62.0914 80.9609 40C80.9609 17.9086 63.0523 0 40.9609 0C18.8695 0 0.960938 17.9086 0.960938 40C0.960938 62.0914 18.8695 80 40.9609 80Z" fill="#0C0C0C"/>
<path d="M37.601 33.5176C37.3 35.1509 37.0145 38.2764 37.0145 39.9376C37.0145 41.5987 37.0899 44.7778 37.601 46.3576M37.601 33.5176L40.9382 30.5936C45.0888 26.9568 47.1642 25.1384 48.9371 25.4916C49.4886 25.6014 50.0074 25.8366 50.4534 26.179C51.8874 27.2798 51.8874 30.039 51.8874 35.5576V44.2794C51.8874 49.7168 51.8874 52.4356 50.4668 53.5365C50.0249 53.8789 49.5094 54.1162 48.9619 54.2292C47.2018 54.5925 45.1378 52.8257 41.01 49.2922C39.114 47.6692 37.705 46.4588 37.601 46.3576M37.601 33.5176C36.8707 33.4665 33.5902 33.4655 30.4342 33.4777C27.819 33.4879 26.5114 33.4929 25.5745 34.1439C25.213 34.3951 24.8971 34.7122 24.6474 35.0746C24 36.0141 24 37.3268 24 39.9522V39.9522C24 42.5899 24 43.9088 24.6513 44.8502C24.9025 45.2133 25.2201 45.5306 25.5835 45.7815C26.5256 46.4318 27.8397 46.4305 30.4678 46.4278C33.6134 46.4246 36.8733 46.4085 37.601 46.3576M27.7189 46.4203L27.6784 55.8253C27.6719 57.346 28.9032 58.582 30.4239 58.5812V58.5812C31.9388 58.5804 33.1665 57.3521 33.1665 55.8371V46.4212M55.6057 32.4657C57.4648 38.0696 57.4648 41.8055 55.6057 47.4095" stroke="#FBFBFB" stroke-width="1.5" stroke-linecap="round" stroke-linejoin="round"/>
</svg>
