<svg width="81" height="81" viewBox="0 0 81 81" fill="none" xmlns="http://www.w3.org/2000/svg">
<g clip-path="url(#clip0_121_1414)">
<path fill-rule="evenodd" clip-rule="evenodd" d="M79.9998 40.0282C79.9998 17.9368 62.0913 0.0282593 39.9999 0.0282593C17.9086 0.0282593 0 17.9368 0 40.0282C0 62.1195 17.9085 80.0281 39.9999 80.0281C62.0913 80.0281 79.9998 62.1196 79.9998 40.0282Z" fill="#0C0C0C"/>
<path d="M50.2 27.556C50.9999 28.2634 51.4751 29.1472 51.4753 30.1057C51.4754 31.0643 51.0006 31.9479 50.201 32.655M54.8045 25C55.9372 26.5366 56.575 28.2713 56.5753 30.1072C56.5757 31.9376 55.9424 33.6673 54.8166 35.2M40 35.2C37.1833 35.2 34.9 32.9167 34.9 30.1C34.9 27.2833 37.1833 25 40 25C42.8167 25 45.1 27.2833 45.1 30.1C45.1 32.9167 42.8167 35.2 40 35.2ZM32.0765 55.6H47.9235C52.1921 55.6 55.0473 51.2065 53.3137 47.3058V47.3058C51.4203 43.0456 47.1955 40.3 42.5334 40.3H37.4666C32.8045 40.3 28.5797 43.0456 26.6863 47.3058V47.3058C24.9527 51.2065 27.8079 55.6 32.0765 55.6Z" stroke="#FBFBFB" stroke-width="1.5" stroke-linecap="round" stroke-linejoin="round"/>
</g>
<defs>
<clipPath id="clip0_121_1414">
<rect width="80" height="80" fill="white" transform="translate(0.480469 0.0282593)"/>
</clipPath>
</defs>
</svg>
