<svg width="81" height="81" viewBox="0 0 81 81" fill="none" xmlns="http://www.w3.org/2000/svg">
<path d="M40.0141 80.0565C62.1133 80.0565 80.0282 62.1416 80.0282 40.0424C80.0282 17.9432 62.1133 0.0282593 40.0141 0.0282593C17.9149 0.0282593 0 17.9432 0 40.0424C0 62.1416 17.9149 80.0565 40.0141 80.0565Z" fill="#0C0C0C"/>
<path d="M50.3491 35.0179C50.3491 36.826 48.8358 38.2918 46.9691 38.2918C45.1024 38.2918 43.5891 36.826 43.5891 35.0179C43.5891 33.2098 45.1024 31.744 46.9691 31.744C48.8358 31.744 50.3491 33.2098 50.3491 35.0179Z" stroke="#FBFBFB" stroke-width="1.65"/>
<path d="M37.7949 35.0179C37.7949 36.826 36.2816 38.2918 34.4149 38.2918C32.5482 38.2918 31.0349 36.826 31.0349 35.0179C31.0349 33.2098 32.5482 31.744 34.4149 31.744C36.2816 31.744 37.7949 33.2098 37.7949 35.0179Z" stroke="#FBFBFB" stroke-width="1.65"/>
<path d="M38.7606 46.2428C38.7606 48.0509 37.2473 49.5167 35.3806 49.5167C33.5139 49.5167 32.0006 48.0509 32.0006 46.2428C32.0006 44.4347 33.5139 42.9689 35.3806 42.9689C37.2473 42.9689 38.7606 44.4347 38.7606 46.2428Z" stroke="#FBFBFB" stroke-width="1.65"/>
<path d="M56.9966 36.2085C56.7962 27.8933 44.706 22.688 35.9008 24.2886C27.0957 25.8893 22.8358 34.5656 24.2749 42.9689C25.6741 51.1391 34.8977 57 40.692 57C46.4862 57 51.3148 54.1938 47.2409 50.8498C46.1075 49.9716 45.1844 48.8655 44.5353 47.608C43.5616 45.7217 45.3234 43.0288 47.4923 43.2139C51.894 43.5896 57.1529 42.6927 56.9966 36.2085Z" stroke="#FBFBFB" stroke-width="1.65"/>
</svg>
