<svg width="340" height="217" viewBox="0 0 340 217" fill="none" xmlns="http://www.w3.org/2000/svg">
<path d="M237.578 216.154H33.877C25.0208 216.137 16.5326 212.342 10.2758 205.601C4.01897 198.861 0.504869 189.725 0.504883 180.201V36.0128C0.520294 26.4991 4.04123 17.3799 10.2964 10.6528C16.5515 3.92562 25.0309 0.139011 33.877 0.122437H78.1207C78.5922 0.122437 79.0444 0.323886 79.3778 0.682467C79.7112 1.04105 79.8986 1.52739 79.8986 2.0345C79.8986 2.54161 79.7112 3.02793 79.3778 3.38651C79.0444 3.74509 78.5922 3.94654 78.1207 3.94654H33.877C25.9716 3.95484 18.3922 7.3359 12.8022 13.3477C7.21221 19.3595 4.06837 27.5108 4.06065 36.0128V180.201C4.06837 188.703 7.21221 196.854 12.8022 202.866C18.3922 208.878 25.9716 212.259 33.877 212.267H237.578C245.469 212.234 253.026 208.842 258.597 202.833C264.168 196.824 267.3 188.687 267.307 180.201V126.726C267.303 126.472 267.347 126.22 267.434 125.985C267.522 125.749 267.652 125.534 267.818 125.354C267.983 125.173 268.18 125.029 268.398 124.931C268.616 124.833 268.849 124.783 269.085 124.783H338.016C338.452 124.842 338.852 125.071 339.143 125.426C339.433 125.781 339.594 126.238 339.594 126.71C339.594 127.183 339.433 127.64 339.143 127.994C338.852 128.349 338.452 128.578 338.016 128.638H270.98V180.201C270.984 184.921 270.122 189.595 268.446 193.957C266.769 198.319 264.309 202.283 261.207 205.622C258.105 208.961 254.422 211.609 250.367 213.417C246.313 215.224 241.967 216.154 237.578 216.154Z" fill="#F4F4F4"/>
</svg>
